<?xml version="1.0" encoding="UTF-8" standalone="no"?>
<!DOCTYPE svg PUBLIC "-//W3C//DTD SVG 1.1//EN"
 "http://www.w3.org/Graphics/SVG/1.1/DTD/svg11.dtd">
<!-- Generated by graphviz version 2.28.0 (20130927.2339)
 -->
<!-- Title: G Pages: 1 -->
<svg width="420pt" height="150pt"
 viewBox="0.00 0.00 420.00 150.00" xmlns="http://www.w3.org/2000/svg" xmlns:xlink="http://www.w3.org/1999/xlink">
<g id="graph1" class="graph" transform="scale(1 1) rotate(0) translate(4 146)">
<title>G</title>
<polygon fill="white" stroke="white" points="-4,5 -4,-146 417,-146 417,5 -4,5"/>
<g id="graph2" class="cluster"><title>cluster_Global</title>
<polyline fill="none" stroke="gray" points="336,-8 392,-8 "/>
<path fill="none" stroke="gray" d="M392,-8C398,-8 404,-14 404,-20"/>
<polyline fill="none" stroke="gray" points="404,-20 404,-122 "/>
<path fill="none" stroke="gray" d="M404,-122C404,-128 398,-134 392,-134"/>
<polyline fill="none" stroke="gray" points="392,-134 336,-134 "/>
<path fill="none" stroke="gray" d="M336,-134C330,-134 324,-128 324,-122"/>
<polyline fill="none" stroke="gray" points="324,-122 324,-20 "/>
<path fill="none" stroke="gray" d="M324,-20C324,-14 330,-8 336,-8"/>
<text text-anchor="middle" x="364" y="-121.2" font-family="Times,serif" font-size="11.00" fill="gray">Global</text>
</g>
<!-- \\FooTest -->
<g id="node2" class="node"><title>\\FooTest</title>
<polygon fill="none" stroke="black" points="396,-106 332,-106 332,-70 396,-70 396,-106"/>
<text text-anchor="middle" x="364" y="-85.2" font-family="Courier,monospace" font-size="11.00">FooTest</text>
</g>
<!-- \\PHPUnit_Framework_TestCase -->
<g id="node5" class="node"><title>\\PHPUnit_Framework_TestCase</title>
<ellipse fill="none" stroke="black" cx="130" cy="-88" rx="129.977" ry="18"/>
<text text-anchor="middle" x="130" y="-84.3" font-family="Times,serif" font-size="14.00" fill="gray">\PHPUnit_Framework_TestCase</text>
</g>
<!-- \\FooTest&#45;&gt;\\PHPUnit_Framework_TestCase -->
<g id="edge3" class="edge"><title>\\FooTest&#45;&gt;\\PHPUnit_Framework_TestCase</title>
<path fill="none" stroke="black" d="M331.711,-88C315.119,-88 293.443,-88 270.486,-88"/>
<polygon fill="none" stroke="black" points="270.223,-84.5001 260.223,-88 270.223,-91.5001 270.223,-84.5001"/>
</g>
<!-- \\Foo -->
<g id="node3" class="node"><title>\\Foo</title>
<polygon fill="none" stroke="black" points="391,-52 337,-52 337,-16 391,-16 391,-52"/>
<text text-anchor="middle" x="364" y="-31.2" font-family="Courier,monospace" font-size="11.00">Foo</text>
</g>
</g>
</svg>
